<svg width="64" height="300" viewBox="0 0 64 300" fill="none" xmlns="http://www.w3.org/2000/svg">
<path d="M31.5 0C24.0372 0 23.0988 0.034375 20.1666 0.165C17.2344 0.3025 15.2372 0.763125 13.4875 1.44375C11.6513 2.13237 9.98861 3.21543 8.61656 4.61656C7.21543 5.98861 6.13237 7.65134 5.44375 9.4875C4.76312 11.2338 4.29906 13.2344 4.165 16.1562C4.03438 19.0953 4 20.0303 4 27.5034C4 34.9697 4.03438 35.9047 4.165 38.8369C4.3025 41.7656 4.76312 43.7628 5.44375 45.5125C6.14844 47.3206 7.08688 48.8537 8.61656 50.3834C10.1428 51.9131 11.6759 52.855 13.4841 53.5563C15.2372 54.2369 17.2309 54.7009 20.1597 54.835C23.0953 54.9656 24.0303 55 31.5 55C38.9697 55 39.9013 54.9656 42.8369 54.835C45.7622 54.6975 47.7663 54.2369 49.5159 53.5563C51.3509 52.8672 53.0124 51.7841 54.3834 50.3834C55.9131 48.8537 56.8516 47.3206 57.5563 45.5125C58.2334 43.7628 58.6975 41.7656 58.835 38.8369C58.9656 35.9047 59 34.9697 59 27.5C59 20.0303 58.9656 19.0953 58.835 16.1597C58.6975 13.2344 58.2334 11.2338 57.5563 9.4875C56.8676 7.65134 55.7846 5.98861 54.3834 4.61656C53.0114 3.21543 51.3487 2.13237 49.5125 1.44375C47.7594 0.763125 45.7588 0.299062 42.8334 0.165C39.8978 0.034375 38.9663 0 31.4931 0H31.5ZM29.0353 4.95688H31.5034C38.8459 4.95688 39.7156 4.98094 42.6134 5.115C45.2947 5.23531 46.7522 5.68563 47.7216 6.06031C49.0037 6.55875 49.9216 7.15688 50.8841 8.11938C51.8466 9.08187 52.4412 9.99625 52.9397 11.2819C53.3178 12.2478 53.7647 13.7053 53.885 16.3866C54.0191 19.2844 54.0466 20.1541 54.0466 27.4931C54.0466 34.8322 54.0191 35.7053 53.885 38.6031C53.7647 41.2844 53.3144 42.7384 52.9397 43.7078C52.4957 44.9003 51.7924 45.9793 50.8806 46.8669C49.9181 47.8294 49.0037 48.4241 47.7181 48.9225C46.7556 49.3006 45.2981 49.7475 42.6134 49.8713C39.7156 50.0019 38.8459 50.0328 31.5034 50.0328C24.1609 50.0328 23.2878 50.0019 20.39 49.8713C17.7088 49.7475 16.2547 49.3006 15.2853 48.9225C14.0919 48.4799 13.0117 47.7778 12.1228 46.8669C11.2094 45.9786 10.5049 44.8984 10.0603 43.7044C9.68563 42.7384 9.23531 41.2809 9.115 38.5997C8.98438 35.7019 8.95688 34.8322 8.95688 27.4862C8.95688 20.1403 8.98438 19.2775 9.115 16.3797C9.23875 13.6984 9.68563 12.2409 10.0638 11.2716C10.5622 9.98938 11.1603 9.07156 12.1228 8.10906C13.0853 7.14656 13.9997 6.55188 15.2853 6.05344C16.2547 5.67531 17.7088 5.22844 20.39 5.10469C22.9269 4.98781 23.91 4.95344 29.0353 4.95V4.95688ZM46.1816 9.52188C45.7482 9.52188 45.3191 9.60723 44.9187 9.77307C44.5183 9.93891 44.1545 10.182 43.8481 10.4884C43.5417 10.7949 43.2986 11.1586 43.1328 11.559C42.9669 11.9594 42.8816 12.3885 42.8816 12.8219C42.8816 13.2552 42.9669 13.6844 43.1328 14.0847C43.2986 14.4851 43.5417 14.8489 43.8481 15.1553C44.1545 15.4618 44.5183 15.7048 44.9187 15.8707C45.3191 16.0365 45.7482 16.1219 46.1816 16.1219C47.0568 16.1219 47.8961 15.7742 48.515 15.1553C49.1339 14.5365 49.4816 13.6971 49.4816 12.8219C49.4816 11.9467 49.1339 11.1073 48.515 10.4884C47.8961 9.86955 47.0568 9.52188 46.1816 9.52188ZM31.5034 13.3787C29.6302 13.3495 27.7699 13.6932 26.0309 14.3899C24.2918 15.0865 22.7086 16.1221 21.3736 17.4365C20.0386 18.7508 18.9784 20.3176 18.2548 22.0456C17.5311 23.7736 17.1584 25.6283 17.1584 27.5017C17.1584 29.3751 17.5311 31.2298 18.2548 32.9579C18.9784 34.6859 20.0386 36.2526 21.3736 37.567C22.7086 38.8813 24.2918 39.9169 26.0309 40.6136C27.7699 41.3102 29.6302 41.6539 31.5034 41.6247C35.2109 41.5668 38.747 40.0535 41.3484 37.4112C43.9497 34.7689 45.4078 31.2097 45.4078 27.5017C45.4078 23.7938 43.9497 20.2345 41.3484 17.5923C38.747 14.95 35.2109 13.4366 31.5034 13.3787ZM31.5034 18.3322C32.7074 18.3322 33.8995 18.5693 35.0118 19.03C36.1241 19.4908 37.1348 20.1661 37.9861 21.0174C38.8374 21.8687 39.5127 22.8793 39.9734 23.9916C40.4341 25.1039 40.6712 26.2961 40.6712 27.5C40.6712 28.7039 40.4341 29.8961 39.9734 31.0084C39.5127 32.1207 38.8374 33.1313 37.9861 33.9826C37.1348 34.8339 36.1241 35.5092 35.0118 35.97C33.8995 36.4307 32.7074 36.6678 31.5034 36.6678C29.072 36.6678 26.7401 35.7019 25.0208 33.9826C23.3015 32.2633 22.3356 29.9315 22.3356 27.5C22.3356 25.0685 23.3015 22.7367 25.0208 21.0174C26.7401 19.2981 29.072 18.3322 31.5034 18.3322Z" fill="black"/>
<path d="M62.6627 260.354C61.9266 257.459 59.7579 255.18 57.0044 254.406C52.0134 253 32 253 32 253C32 253 11.9867 253 6.99562 254.406C4.24206 255.18 2.0734 257.459 1.33734 260.354C0 265.601 0 276.547 0 276.547C0 276.547 0 287.494 1.33734 292.741C2.0734 295.636 4.24206 297.82 6.99562 298.594C11.9867 300 32 300 32 300C32 300 52.0133 300 57.0044 298.594C59.7579 297.82 61.9266 295.636 62.6627 292.741C64 287.494 64 276.547 64 276.547C64 276.547 64 265.601 62.6627 260.354ZM25.4545 286.486V266.609L42.1817 276.548L25.4545 286.486Z" fill="black"/>
<path d="M16.3112 133H4.90848V96.2793H16.3112V133ZM10.6037 91.2703C6.95748 91.2703 4 88.2501 4 84.6038C4 82.8524 4.69574 81.1727 5.93417 79.9342C7.1726 78.6958 8.85228 78 10.6037 78C12.3551 78 14.0348 78.6958 15.2732 79.9342C16.5116 81.1727 17.2074 82.8524 17.2074 84.6038C17.2074 88.2501 14.2487 91.2703 10.6037 91.2703ZM58.9877 133H47.6096V115.125C47.6096 110.864 47.5237 105.401 41.6811 105.401C35.7527 105.401 34.8442 110.03 34.8442 114.818V133H23.4538V96.2793H34.39V101.288H34.5496C36.0719 98.4032 39.7905 95.3585 45.3384 95.3585C56.8786 95.3585 59 102.958 59 112.829V133H58.9877Z" fill="black"/>
</svg>
