<svg width="666" height="152" viewBox="0 0 666 152" fill="none" xmlns="http://www.w3.org/2000/svg">
<g filter="url(#filter0_d_528_1204)">
<path d="M36.8 144C26.1333 144 18.0667 141 12.6 135C7.13333 128.867 4.4 120.133 4.4 108.8V100.8H25.2V110.4C25.2 119.467 29 124 36.6 124C40.3333 124 43.1333 122.933 45 120.8C47 118.533 48 114.933 48 110C48 104.133 46.6667 99 44 94.6C41.3333 90.0667 36.4 84.6667 29.2 78.4C20.1333 70.4 13.8 63.2 10.2 56.8C6.6 50.2667 4.8 42.9333 4.8 34.8C4.8 23.7333 7.6 15.2 13.2 9.19999C18.8 3.06666 26.9333 -7.62939e-06 37.6 -7.62939e-06C48.1333 -7.62939e-06 56.0667 3.06666 61.4 9.19999C66.8667 15.2 69.6 23.8667 69.6 35.2V41H48.8V33.8C48.8 29 47.8667 25.5333 46 23.4C44.1333 21.1333 41.4 20 37.8 20C30.4667 20 26.8 24.4667 26.8 33.4C26.8 38.4667 28.1333 43.2 30.8 47.6C33.6 52 38.6 57.3333 45.8 63.6C55 71.6 61.3333 78.8667 64.8 85.4C68.2667 91.9333 70 99.6 70 108.4C70 119.867 67.1333 128.667 61.4 134.8C55.8 140.933 47.6 144 36.8 144ZM115.614 144C105.081 144 97.0141 141 91.4141 135C85.9474 129 83.2141 120.533 83.2141 109.6V34.4C83.2141 23.4667 85.9474 15 91.4141 9C97.0141 2.99999 105.081 -7.62939e-06 115.614 -7.62939e-06C126.147 -7.62939e-06 134.147 2.99999 139.614 9C145.214 15 148.014 23.4667 148.014 34.4V49.2H127.214V33C127.214 24.3333 123.547 20 116.214 20C108.881 20 105.214 24.3333 105.214 33V111.2C105.214 119.733 108.881 124 116.214 124C123.547 124 127.214 119.733 127.214 111.2V89.8H148.014V109.6C148.014 120.533 145.214 129 139.614 135C134.147 141 126.147 144 115.614 144ZM163.177 1.99999H195.777C207.11 1.99999 215.377 4.66666 220.577 9.99999C225.777 15.2 228.377 23.2667 228.377 34.2V42.8C228.377 57.3333 223.577 66.5333 213.977 70.4V70.8C219.31 72.4 223.043 75.6667 225.177 80.6C227.443 85.5333 228.577 92.1333 228.577 100.4V125C228.577 129 228.71 132.267 228.977 134.8C229.243 137.2 229.91 139.6 230.977 142H208.577C207.777 139.733 207.243 137.6 206.977 135.6C206.71 133.6 206.577 130 206.577 124.8V99.2C206.577 92.8 205.51 88.3333 203.377 85.8C201.377 83.2667 197.843 82 192.777 82H185.177V142H163.177V1.99999ZM193.177 62C197.577 62 200.843 60.8667 202.977 58.6C205.243 56.3333 206.377 52.5333 206.377 47.2V36.4C206.377 31.3333 205.443 27.6667 203.577 25.4C201.843 23.1333 199.043 22 195.177 22H185.177V62H193.177ZM277.641 144C266.841 144 258.574 140.933 252.841 134.8C247.107 128.667 244.241 120 244.241 108.8V35.2C244.241 24 247.107 15.3333 252.841 9.19999C258.574 3.06666 266.841 -7.62939e-06 277.641 -7.62939e-06C288.441 -7.62939e-06 296.707 3.06666 302.441 9.19999C308.174 15.3333 311.041 24 311.041 35.2V108.8C311.041 120 308.174 128.667 302.441 134.8C296.707 140.933 288.441 144 277.641 144ZM277.641 124C285.241 124 289.041 119.4 289.041 110.2V33.8C289.041 24.6 285.241 20 277.641 20C270.041 20 266.241 24.6 266.241 33.8V110.2C266.241 119.4 270.041 124 277.641 124ZM327.919 1.99999H349.919V122H386.119V142H327.919V1.99999ZM398.669 1.99999H420.669V122H456.869V142H398.669V1.99999ZM469.419 1.99999H491.419V142H469.419V1.99999ZM509.895 1.99999H537.495L558.895 85.8H559.295V1.99999H578.895V142H556.295L529.895 39.8H529.495V142H509.895V1.99999ZM628.447 144C617.78 144 609.647 141 604.047 135C598.447 128.867 595.647 120.133 595.647 108.8V35.2C595.647 23.8667 598.447 15.2 604.047 9.19999C609.647 3.06666 617.78 -7.62939e-06 628.447 -7.62939e-06C639.114 -7.62939e-06 647.247 3.06666 652.847 9.19999C658.447 15.2 661.247 23.8667 661.247 35.2V47.2H640.447V33.8C640.447 24.6 636.647 20 629.047 20C621.447 20 617.647 24.6 617.647 33.8V110.4C617.647 119.467 621.447 124 629.047 124C636.647 124 640.447 119.467 640.447 110.4V83H629.447V63H661.247V108.8C661.247 120.133 658.447 128.867 652.847 135C647.247 141 639.114 144 628.447 144Z" fill="white"/>
</g>
<defs>
<filter id="filter0_d_528_1204" x="0.399902" y="0" width="664.847" height="152" filterUnits="userSpaceOnUse" color-interpolation-filters="sRGB">
<feFlood flood-opacity="0" result="BackgroundImageFix"/>
<feColorMatrix in="SourceAlpha" type="matrix" values="0 0 0 0 0 0 0 0 0 0 0 0 0 0 0 0 0 0 127 0" result="hardAlpha"/>
<feOffset dy="4"/>
<feGaussianBlur stdDeviation="2"/>
<feComposite in2="hardAlpha" operator="out"/>
<feColorMatrix type="matrix" values="0 0 0 0 0 0 0 0 0 0 0 0 0 0 0 0 0 0 0.25 0"/>
<feBlend mode="normal" in2="BackgroundImageFix" result="effect1_dropShadow_528_1204"/>
<feBlend mode="normal" in="SourceGraphic" in2="effect1_dropShadow_528_1204" result="shape"/>
</filter>
</defs>
</svg>
