<svg width="581" height="155" viewBox="0 0 581 155" fill="none" xmlns="http://www.w3.org/2000/svg">
<g filter="url(#filter0_df_528_1203)">
<mask id="path-1-outside-1_528_1203" maskUnits="userSpaceOnUse" x="-11" y="-8" width="599" height="166" fill="black">
<rect fill="white" x="-11" y="-8" width="599" height="166"/>
<path d="M31.4 85.4L4.8 4.99999H28.2L43.2 56.4H43.6L58.6 4.99999H80L53.4 85.4V145H31.4V85.4ZM120.195 147C109.395 147 101.129 143.933 95.3953 137.8C89.662 131.667 86.7953 123 86.7953 111.8V38.2C86.7953 27 89.662 18.3333 95.3953 12.2C101.129 6.06666 109.395 2.99999 120.195 2.99999C130.995 2.99999 139.262 6.06666 144.995 12.2C150.729 18.3333 153.595 27 153.595 38.2V111.8C153.595 123 150.729 131.667 144.995 137.8C139.262 143.933 130.995 147 120.195 147ZM120.195 127C127.795 127 131.595 122.4 131.595 113.2V36.8C131.595 27.6 127.795 23 120.195 23C112.595 23 108.795 27.6 108.795 36.8V113.2C108.795 122.4 112.595 127 120.195 127ZM202.473 147C191.807 147 183.673 144 178.073 138C172.473 131.867 169.673 123.133 169.673 111.8V4.99999H191.673V113.4C191.673 118.2 192.607 121.667 194.473 123.8C196.473 125.933 199.273 127 202.873 127C206.473 127 209.207 125.933 211.073 123.8C213.073 121.667 214.073 118.2 214.073 113.4V4.99999H235.273V111.8C235.273 123.133 232.473 131.867 226.873 138C221.273 144 213.14 147 202.473 147Z"/>
<path d="M286.973 4.99999H308.973V125H345.173V145H286.973V4.99999ZM388.742 147C377.942 147 369.676 143.933 363.942 137.8C358.209 131.667 355.342 123 355.342 111.8V38.2C355.342 27 358.209 18.3333 363.942 12.2C369.676 6.06666 377.942 2.99999 388.742 2.99999C399.542 2.99999 407.809 6.06666 413.542 12.2C419.276 18.3333 422.142 27 422.142 38.2V111.8C422.142 123 419.276 131.667 413.542 137.8C407.809 143.933 399.542 147 388.742 147ZM388.742 127C396.342 127 400.142 122.4 400.142 113.2V36.8C400.142 27.6 396.342 23 388.742 23C381.142 23 377.342 27.6 377.342 36.8V113.2C377.342 122.4 381.142 127 388.742 127ZM432.83 4.99999H455.03L469.43 113.6H469.83L484.23 4.99999H504.43L483.23 145H454.03L432.83 4.99999ZM516.997 4.99999H576.997V25H538.997V62H569.197V82H538.997V125H576.997V145H516.997V4.99999Z"/>
</mask>
<path d="M31.4 85.4L4.8 4.99999H28.2L43.2 56.4H43.6L58.6 4.99999H80L53.4 85.4V145H31.4V85.4ZM120.195 147C109.395 147 101.129 143.933 95.3953 137.8C89.662 131.667 86.7953 123 86.7953 111.8V38.2C86.7953 27 89.662 18.3333 95.3953 12.2C101.129 6.06666 109.395 2.99999 120.195 2.99999C130.995 2.99999 139.262 6.06666 144.995 12.2C150.729 18.3333 153.595 27 153.595 38.2V111.8C153.595 123 150.729 131.667 144.995 137.8C139.262 143.933 130.995 147 120.195 147ZM120.195 127C127.795 127 131.595 122.4 131.595 113.2V36.8C131.595 27.6 127.795 23 120.195 23C112.595 23 108.795 27.6 108.795 36.8V113.2C108.795 122.4 112.595 127 120.195 127ZM202.473 147C191.807 147 183.673 144 178.073 138C172.473 131.867 169.673 123.133 169.673 111.8V4.99999H191.673V113.4C191.673 118.2 192.607 121.667 194.473 123.8C196.473 125.933 199.273 127 202.873 127C206.473 127 209.207 125.933 211.073 123.8C213.073 121.667 214.073 118.2 214.073 113.4V4.99999H235.273V111.8C235.273 123.133 232.473 131.867 226.873 138C221.273 144 213.14 147 202.473 147Z" fill="white"/>
<path d="M31.4 145H20.4V156H31.4V145ZM31.4 85.4H42.4V83.6276L41.8433 81.9449L31.4 85.4ZM4.8 4.99999V-6.00001H-10.4257L-5.64328 8.45511L4.8 4.99999ZM28.2 4.99999L38.7595 1.91841L36.4487 -6.00001H28.2V4.99999ZM43.2 56.4L32.6405 59.4816L34.9513 67.4H43.2V56.4ZM43.6 56.4V67.4H51.8487L54.1595 59.4816L43.6 56.4ZM58.6 4.99999V-6.00001H50.3513L48.0405 1.91841L58.6 4.99999ZM80 4.99999L90.4433 8.45511L95.2257 -6.00001H80V4.99999ZM53.4 85.4L42.9567 81.9449L42.4 83.6276V85.4H53.4ZM53.4 145V156H64.4V145H53.4ZM42.4 145V85.4H20.4V145H42.4ZM41.8433 81.9449L15.2433 1.54488L-5.64328 8.45511L20.9567 88.8551L41.8433 81.9449ZM4.8 16H28.2V-6.00001H4.8V16ZM17.6405 8.08157L32.6405 59.4816L53.7595 53.3184L38.7595 1.91841L17.6405 8.08157ZM43.2 67.4H43.6V45.4H43.2V67.4ZM54.1595 59.4816L69.1595 8.08157L48.0405 1.91841L33.0405 53.3184L54.1595 59.4816ZM58.6 16H80V-6.00001H58.6V16ZM69.5567 1.54488L42.9567 81.9449L63.8433 88.8551L90.4433 8.45511L69.5567 1.54488ZM42.4 85.4V145H64.4V85.4H42.4ZM53.4 134H31.4V156H53.4V134ZM120.195 136C111.587 136 106.461 133.506 103.404 130.259C100.249 126.909 97.7953 121.164 97.7953 111.8H75.7953C75.7953 124.836 79.2414 136.691 87.3871 145.341C95.6292 154.094 107.204 158 120.195 158V136ZM97.7953 111.8V38.2H75.7953V111.8H97.7953ZM97.7953 38.2C97.7953 28.8355 100.249 23.0908 103.404 19.7411C106.461 16.4938 111.587 14 120.195 14V-8.00001C107.204 -8.00001 95.6292 -4.0938 87.3871 4.6589C79.2414 13.3092 75.7953 25.1645 75.7953 38.2H97.7953ZM120.195 14C128.804 14 133.929 16.4938 136.987 19.7411C140.141 23.0908 142.595 28.8355 142.595 38.2H164.595C164.595 25.1645 161.149 13.3092 153.004 4.6589C144.761 -4.0938 133.187 -8.00001 120.195 -8.00001V14ZM142.595 38.2V111.8H164.595V38.2H142.595ZM142.595 111.8C142.595 121.164 140.141 126.909 136.987 130.259C133.929 133.506 128.804 136 120.195 136V158C133.187 158 144.761 154.094 153.004 145.341C161.149 136.691 164.595 124.836 164.595 111.8H142.595ZM120.195 138C125.644 138 131.971 136.472 136.706 131.198C141.226 126.163 142.595 119.566 142.595 113.2H120.595C120.595 114.931 120.401 115.947 120.251 116.452C120.114 116.917 120.058 116.81 120.335 116.502C120.636 116.166 120.98 115.982 121.141 115.923C121.232 115.89 120.982 116 120.195 116V138ZM142.595 113.2V36.8H120.595V113.2H142.595ZM142.595 36.8C142.595 30.434 141.226 23.8373 136.706 18.8017C131.971 13.5277 125.644 12 120.195 12V34C120.982 34 121.232 34.1104 121.141 34.0769C120.98 34.0179 120.636 33.8341 120.335 33.4983C120.058 33.1904 120.114 33.0835 120.251 33.5481C120.401 34.0529 120.595 35.0688 120.595 36.8H142.595ZM120.195 12C114.746 12 108.419 13.5277 103.685 18.8017C99.1642 23.8373 97.7953 30.434 97.7953 36.8H119.795C119.795 35.0688 119.99 34.0529 120.14 33.5481C120.277 33.0835 120.332 33.1904 120.056 33.4983C119.754 33.8341 119.411 34.0179 119.25 34.0769C119.158 34.1104 119.409 34 120.195 34V12ZM97.7953 36.8V113.2H119.795V36.8H97.7953ZM97.7953 113.2C97.7953 119.566 99.1642 126.163 103.685 131.198C108.419 136.472 114.746 138 120.195 138V116C119.409 116 119.158 115.89 119.25 115.923C119.411 115.982 119.754 116.166 120.056 116.502C120.332 116.81 120.277 116.917 120.14 116.452C119.99 115.947 119.795 114.931 119.795 113.2H97.7953ZM169.673 4.99999V-6.00001H158.673V4.99999H169.673ZM191.673 4.99999H202.673V-6.00001H191.673V4.99999ZM214.073 4.99999V-6.00001H203.073V4.99999H214.073ZM235.273 4.99999H246.273V-6.00001H235.273V4.99999ZM202.473 136C193.875 136 188.969 133.517 186.082 130.367C183.05 127.059 180.673 121.305 180.673 111.8H158.673C158.673 124.695 161.897 136.541 169.865 145.233C177.977 154.083 189.472 158 202.473 158V136ZM180.673 111.8V4.99999H158.673V111.8H180.673ZM169.673 16H191.673V-6.00001H169.673V16ZM180.673 4.99999V113.4H202.673V4.99999H180.673ZM180.673 113.4C180.673 119.641 181.938 126.245 186.453 131.288C191.212 136.602 197.573 138 202.873 138V116C202.026 116 201.769 115.886 201.88 115.926C202.073 115.995 202.482 116.209 202.844 116.612C203.175 116.983 203.139 117.147 203.008 116.694C202.865 116.198 202.673 115.173 202.673 113.4H180.673ZM202.873 138C208.173 138 214.535 136.602 219.294 131.288C223.809 126.245 225.073 119.641 225.073 113.4H203.073C203.073 115.173 202.882 116.198 202.739 116.694C202.608 117.147 202.572 116.983 202.903 116.612C203.265 116.209 203.674 115.995 203.866 115.926C203.977 115.886 203.721 116 202.873 116V138ZM225.073 113.4V4.99999H203.073V113.4H225.073ZM214.073 16H235.273V-6.00001H214.073V16ZM224.273 4.99999V111.8H246.273V4.99999H224.273ZM224.273 111.8C224.273 121.305 221.897 127.059 218.865 130.367C215.977 133.517 211.072 136 202.473 136V158C215.475 158 226.969 154.083 235.082 145.233C243.05 136.541 246.273 124.695 246.273 111.8H224.273ZM286.973 145H275.973V156H286.973V145ZM286.973 4.99999V-6.00001H275.973V4.99999H286.973ZM308.973 4.99999H319.973V-6.00001H308.973V4.99999ZM308.973 125H297.973V136H308.973V125ZM345.173 125H356.173V114H345.173V125ZM345.173 145V156H356.173V145H345.173ZM297.973 145V4.99999H275.973V145H297.973ZM286.973 16H308.973V-6.00001H286.973V16ZM297.973 4.99999V125H319.973V4.99999H297.973ZM308.973 136H345.173V114H308.973V136ZM334.173 125V145H356.173V125H334.173ZM345.173 134H286.973V156H345.173V134ZM388.742 136C380.134 136 375.008 133.506 371.95 130.259C368.796 126.909 366.342 121.164 366.342 111.8H344.342C344.342 124.836 347.788 136.691 355.934 145.341C364.176 154.094 375.751 158 388.742 158V136ZM366.342 111.8V38.2H344.342V111.8H366.342ZM366.342 38.2C366.342 28.8355 368.796 23.0908 371.95 19.7411C375.008 16.4938 380.134 14 388.742 14V-8.00001C375.751 -8.00001 364.176 -4.0938 355.934 4.6589C347.788 13.3092 344.342 25.1645 344.342 38.2H366.342ZM388.742 14C397.351 14 402.476 16.4938 405.534 19.7411C408.688 23.0908 411.142 28.8355 411.142 38.2H433.142C433.142 25.1645 429.696 13.3092 421.55 4.6589C413.308 -4.0938 401.734 -8.00001 388.742 -8.00001V14ZM411.142 38.2V111.8H433.142V38.2H411.142ZM411.142 111.8C411.142 121.164 408.688 126.909 405.534 130.259C402.476 133.506 397.351 136 388.742 136V158C401.734 158 413.308 154.094 421.55 145.341C429.696 136.691 433.142 124.836 433.142 111.8H411.142ZM388.742 138C394.191 138 400.518 136.472 405.253 131.198C409.773 126.163 411.142 119.566 411.142 113.2H389.142C389.142 114.931 388.947 115.947 388.798 116.452C388.66 116.917 388.605 116.81 388.882 116.502C389.183 116.166 389.527 115.982 389.688 115.923C389.779 115.89 389.529 116 388.742 116V138ZM411.142 113.2V36.8H389.142V113.2H411.142ZM411.142 36.8C411.142 30.434 409.773 23.8373 405.253 18.8017C400.518 13.5277 394.191 12 388.742 12V34C389.529 34 389.779 34.1104 389.688 34.0769C389.527 34.0179 389.183 33.8341 388.882 33.4983C388.605 33.1904 388.66 33.0835 388.798 33.5481C388.947 34.0529 389.142 35.0688 389.142 36.8H411.142ZM388.742 12C383.293 12 376.966 13.5277 372.232 18.8017C367.711 23.8373 366.342 30.434 366.342 36.8H388.342C388.342 35.0688 388.537 34.0529 388.686 33.5481C388.824 33.0835 388.879 33.1904 388.603 33.4983C388.301 33.8341 387.957 34.0179 387.797 34.0769C387.705 34.1104 387.956 34 388.742 34V12ZM366.342 36.8V113.2H388.342V36.8H366.342ZM366.342 113.2C366.342 119.566 367.711 126.163 372.232 131.198C376.966 136.472 383.293 138 388.742 138V116C387.956 116 387.705 115.89 387.797 115.923C387.957 115.982 388.301 116.166 388.603 116.502C388.879 116.81 388.824 116.917 388.686 116.452C388.537 115.947 388.342 114.931 388.342 113.2H366.342ZM454.03 145L443.154 146.647L444.57 156H454.03V145ZM432.83 4.99999V-6.00001H420.039L421.954 6.64693L432.83 4.99999ZM455.03 4.99999L465.934 3.55408L464.667 -6.00001H455.03V4.99999ZM469.43 113.6L458.525 115.046L459.792 124.6H469.43V113.6ZM469.83 113.6V124.6H479.467L480.734 115.046L469.83 113.6ZM484.23 4.99999V-6.00001H474.592L473.325 3.55408L484.23 4.99999ZM504.43 4.99999L515.306 6.64693L517.221 -6.00001H504.43V4.99999ZM483.23 145V156H492.689L494.106 146.647L483.23 145ZM464.906 143.353L443.706 3.35305L421.954 6.64693L443.154 146.647L464.906 143.353ZM432.83 16H455.03V-6.00001H432.83V16ZM444.125 6.4459L458.525 115.046L480.334 112.154L465.934 3.55408L444.125 6.4459ZM469.43 124.6H469.83V102.6H469.43V124.6ZM480.734 115.046L495.134 6.4459L473.325 3.55408L458.925 112.154L480.734 115.046ZM484.23 16H504.43V-6.00001H484.23V16ZM493.554 3.35305L472.354 143.353L494.106 146.647L515.306 6.64693L493.554 3.35305ZM483.23 134H454.03V156H483.23V134ZM516.997 145H505.997V156H516.997V145ZM516.997 4.99999V-6.00001H505.997V4.99999H516.997ZM576.997 4.99999H587.997V-6.00001H576.997V4.99999ZM576.997 25V36H587.997V25H576.997ZM538.997 25V14H527.997V25H538.997ZM538.997 62H527.997V73H538.997V62ZM569.197 62H580.197V51H569.197V62ZM569.197 82V93H580.197V82H569.197ZM538.997 82V71H527.997V82H538.997ZM538.997 125H527.997V136H538.997V125ZM576.997 125H587.997V114H576.997V125ZM576.997 145V156H587.997V145H576.997ZM527.997 145V4.99999H505.997V145H527.997ZM516.997 16H576.997V-6.00001H516.997V16ZM565.997 4.99999V25H587.997V4.99999H565.997ZM576.997 14H538.997V36H576.997V14ZM527.997 25V62H549.997V25H527.997ZM538.997 73H569.197V51H538.997V73ZM558.197 62V82H580.197V62H558.197ZM569.197 71H538.997V93H569.197V71ZM527.997 82V125H549.997V82H527.997ZM538.997 136H576.997V114H538.997V136ZM565.997 125V145H587.997V125H565.997ZM576.997 134H516.997V156H576.997V134Z" fill="#652703" mask="url(#path-1-outside-1_528_1203)"/>
</g>
<defs>
<filter id="filter0_df_528_1203" x="0.800049" y="0.7" width="580.197" height="154.3" filterUnits="userSpaceOnUse" color-interpolation-filters="sRGB">
<feFlood flood-opacity="0" result="BackgroundImageFix"/>
<feColorMatrix in="SourceAlpha" type="matrix" values="0 0 0 0 0 0 0 0 0 0 0 0 0 0 0 0 0 0 127 0" result="hardAlpha"/>
<feOffset dy="4"/>
<feGaussianBlur stdDeviation="2"/>
<feComposite in2="hardAlpha" operator="out"/>
<feColorMatrix type="matrix" values="0 0 0 0 0 0 0 0 0 0 0 0 0 0 0 0 0 0 0.25 0"/>
<feBlend mode="normal" in2="BackgroundImageFix" result="effect1_dropShadow_528_1203"/>
<feBlend mode="normal" in="SourceGraphic" in2="effect1_dropShadow_528_1203" result="shape"/>
<feGaussianBlur stdDeviation="1.15" result="effect2_foregroundBlur_528_1203"/>
</filter>
</defs>
</svg>
